<svg width="1728" height="1117" viewBox="0 0 1728 1117" fill="none" xmlns="http://www.w3.org/2000/svg">
<g clip-path="url(#clip0_2844_27)">
<rect width="1728" height="1117" fill="#000319"/>
<mask id="mask0_2844_27" style="mask-type:luminance" maskUnits="userSpaceOnUse" x="0" y="229" width="1726" height="896">
<path d="M0 229H1726V1125H0V229Z" fill="white"/>
</mask>
<g mask="url(#mask0_2844_27)">
<path d="M421.997 633.631H295.165V711.554H421.997V633.631Z" fill="url(#paint0_radial_2844_27)" fill-opacity="0.06"/>
<path d="M929.323 399.861H802.491V477.785H929.323V399.861Z" fill="url(#paint1_radial_2844_27)" fill-opacity="0.06"/>
<path d="M802.491 867.4H675.659V945.324H802.491V867.4Z" fill="url(#paint2_radial_2844_27)" fill-opacity="0.06"/>
<path d="M1309.82 711.555H1182.99V789.477H1309.82V711.555Z" fill="url(#paint3_radial_2844_27)" fill-opacity="0.06"/>
<path d="M929.325 633.631H802.493V711.554H929.325V633.631Z" fill="url(#paint4_radial_2844_27)" fill-opacity="0.06"/>
<path d="M41.5009 88.1699H-85.3311V166.093M41.5009 88.1699V166.093M41.5009 88.1699H168.333M-85.3311 166.093H41.5009M-85.3311 166.093V244.016M41.5009 166.093H168.333M41.5009 166.093V244.016M168.333 88.1699V166.093M168.333 88.1699H295.165M168.333 166.093H295.165M168.333 166.093V244.016M41.5009 244.016H-85.3311M41.5009 244.016H168.333M41.5009 244.016V321.939M-85.3311 244.016V321.939M295.165 88.1699V166.093M295.165 88.1699H421.997M295.165 166.093H421.997M295.165 166.093V244.016M168.333 244.016H295.165M168.333 244.016V321.939M421.997 88.1699V166.093M421.997 88.1699H548.829M421.997 166.093H548.829M421.997 166.093V244.016M295.165 244.016H421.997M295.165 244.016V321.939M548.829 88.1699V166.093M548.829 88.1699H675.66M548.829 166.093H675.66M548.829 166.093V244.016M421.997 244.016H548.829M421.997 244.016V321.939M675.66 88.1699V166.093M675.66 88.1699H802.492M675.66 166.093H802.492M675.66 166.093V244.016M548.829 244.016H675.66M548.829 244.016V321.939M802.492 88.1699V166.093M802.492 88.1699H929.324M802.492 166.093H929.324M802.492 166.093V244.016M675.66 244.016H802.492M675.66 244.016V321.939M929.324 88.1699V166.093M929.324 88.1699H1056.16M929.324 166.093H1056.16M929.324 166.093V244.016M802.492 244.016H929.324M802.492 244.016V321.939M1056.16 88.1699V166.093M1056.16 88.1699H1182.99M1056.16 166.093H1182.99M1056.16 166.093V244.016M929.324 244.016H1056.16M929.324 244.016V321.939M1182.99 88.1699V166.093M1182.99 88.1699H1309.82M1182.99 166.093H1309.82M1182.99 166.093V244.016M1056.16 244.016H1182.99M1056.16 244.016V321.939M1309.82 88.1699V166.093M1309.82 88.1699H1436.65M1309.82 166.093H1436.65M1309.82 166.093V244.016M1182.99 244.016H1309.82M1182.99 244.016V321.939M1436.65 88.1699V166.093M1436.65 88.1699H1563.48M1436.65 166.093H1563.48M1436.65 166.093V244.016M1309.82 244.016H1436.65M1309.82 244.016V321.939M1563.48 88.1699V166.093M1563.48 88.1699H1690.32M1563.48 166.093H1690.32M1563.48 166.093V244.016M1436.65 244.016H1563.48M1436.65 244.016V321.939M1690.32 88.1699V166.093M1690.32 88.1699H1817.15V166.093M1690.32 166.093H1817.15M1690.32 166.093V244.016M1563.48 244.016H1690.32M1563.48 244.016V321.939M1817.15 166.093V244.016M1690.32 244.016H1817.15M1690.32 244.016V321.939M1817.15 244.016V321.939M41.5009 321.939H-85.3311M41.5009 321.939H168.333M41.5009 321.939V399.862M-85.3311 321.939V399.862M168.333 321.939H295.165M168.333 321.939V399.862M295.165 321.939H421.997M295.165 321.939V399.862M421.997 321.939H548.829M421.997 321.939V399.862M548.829 321.939H675.66M548.829 321.939V399.862M675.66 321.939H802.492M675.66 321.939V399.862M802.492 321.939H929.324M802.492 321.939V399.862M929.324 321.939H1056.16M929.324 321.939V399.862M1056.16 321.939H1182.99M1056.16 321.939V399.862M1182.99 321.939H1309.82M1182.99 321.939V399.862M1309.82 321.939H1436.65M1309.82 321.939V399.862M1436.65 321.939H1563.48M1436.65 321.939V399.862M1563.48 321.939H1690.32M1563.48 321.939V399.862M1690.32 321.939H1817.15M1690.32 321.939V399.862M1817.15 321.939V399.862M41.5009 399.862H-85.3311M41.5009 399.862H168.333M41.5009 399.862V477.785M-85.3311 399.862V477.785M168.333 399.862H295.165M168.333 399.862V477.785M295.165 399.862H421.997M295.165 399.862V477.785M421.997 399.862H548.829M421.997 399.862V477.785M548.829 399.862H675.66M548.829 399.862V477.785M675.66 399.862H802.492M675.66 399.862V477.785M802.492 399.862H929.324M802.492 399.862V477.785M929.324 399.862H1056.16M929.324 399.862V477.785M1056.16 399.862H1182.99M1056.16 399.862V477.785M1182.99 399.862H1309.82M1182.99 399.862V477.785M1309.82 399.862H1436.65M1309.82 399.862V477.785M1436.65 399.862H1563.48M1436.65 399.862V477.785M1563.48 399.862H1690.32M1563.48 399.862V477.785M1690.32 399.862H1817.15M1690.32 399.862V477.785M1817.15 399.862V477.785M41.5009 477.785H-85.3311M41.5009 477.785H168.333M41.5009 477.785V555.709M-85.3311 477.785V555.709M168.333 477.785H295.165M168.333 477.785V555.709M295.165 477.785H421.997M295.165 477.785V555.709M421.997 477.785H548.829M421.997 477.785V555.709M548.829 477.785H675.66M548.829 477.785V555.709M675.66 477.785H802.492M675.66 477.785V555.709M802.492 477.785H929.324M802.492 477.785V555.709M929.324 477.785H1056.16M929.324 477.785V555.709M1056.16 477.785H1182.99M1056.16 477.785V555.709M1182.99 477.785H1309.82M1182.99 477.785V555.709M1309.82 477.785H1436.65M1309.82 477.785V555.709M1436.65 477.785H1563.48M1436.65 477.785V555.709M1563.48 477.785H1690.32M1563.48 477.785V555.709M1690.32 477.785H1817.15M1690.32 477.785V555.709M1817.15 477.785V555.709M41.5009 555.709H-85.3311M41.5009 555.709H168.333M41.5009 555.709V633.631M-85.3311 555.709V633.631M168.333 555.709H295.165M168.333 555.709V633.631M295.165 555.709H421.997M295.165 555.709V633.631M421.997 555.709H548.829M421.997 555.709V633.631M548.829 555.709H675.66M548.829 555.709V633.631M675.66 555.709H802.492M675.66 555.709V633.631M802.492 555.709H929.324M802.492 555.709V633.631M929.324 555.709H1056.16M929.324 555.709V633.631M1056.16 555.709H1182.99M1056.16 555.709V633.631M1182.99 555.709H1309.82M1182.99 555.709V633.631M1309.82 555.709H1436.65M1309.82 555.709V633.631M1436.65 555.709H1563.48M1436.65 555.709V633.631M1563.48 555.709H1690.32M1563.48 555.709V633.631M1690.32 555.709H1817.15M1690.32 555.709V633.631M1817.15 555.709V633.631M41.5009 633.631H-85.3311M41.5009 633.631H168.333M41.5009 633.631V711.554M-85.3311 633.631V711.554M168.333 633.631H295.165M168.333 633.631V711.554M295.165 633.631H421.997M295.165 633.631V711.554M421.997 633.631H548.829M421.997 633.631V711.554M548.829 633.631H675.66M548.829 633.631V711.554M675.66 633.631H802.492M675.66 633.631V711.554M802.492 633.631H929.324M802.492 633.631V711.554M929.324 633.631H1056.16M929.324 633.631V711.554M1056.16 633.631H1182.99M1056.16 633.631V711.554M1182.99 633.631H1309.82M1182.99 633.631V711.554M1309.82 633.631H1436.65M1309.82 633.631V711.554M1436.65 633.631H1563.48M1436.65 633.631V711.554M1563.48 633.631H1690.32M1563.48 633.631V711.554M1690.32 633.631H1817.15M1690.32 633.631V711.554M1817.15 633.631V711.554M41.5009 711.554H-85.3311M41.5009 711.554H168.333M41.5009 711.554V789.477M-85.3311 711.554V789.477M168.333 711.554H295.165M168.333 711.554V789.477M295.165 711.554H421.997M295.165 711.554V789.477M421.997 711.554H548.829M421.997 711.554V789.477M548.829 711.554H675.66M548.829 711.554V789.477M675.66 711.554H802.492M675.66 711.554V789.477M802.492 711.554H929.324M802.492 711.554V789.477M929.324 711.554H1056.16M929.324 711.554V789.477M1056.16 711.554H1182.99M1056.16 711.554V789.477M1182.99 711.554H1309.82M1182.99 711.554V789.477M1309.82 711.554H1436.65M1309.82 711.554V789.477M1436.65 711.554H1563.48M1436.65 711.554V789.477M1563.48 711.554H1690.32M1563.48 711.554V789.477M1690.32 711.554H1817.15M1690.32 711.554V789.477M1817.15 711.554V789.477M41.5009 789.477H-85.3311M41.5009 789.477H168.333M41.5009 789.477V867.4M-85.3311 789.477V867.4M168.333 789.477H295.165M168.333 789.477V867.4M295.165 789.477H421.997M295.165 789.477V867.4M421.997 789.477H548.829M421.997 789.477V867.4M548.829 789.477H675.66M548.829 789.477V867.4M675.66 789.477H802.492M675.66 789.477V867.4M802.492 789.477H929.324M802.492 789.477V867.4M929.324 789.477H1056.16M929.324 789.477V867.4M1056.16 789.477H1182.99M1056.16 789.477V867.4M1182.99 789.477H1309.82M1182.99 789.477V867.4M1309.82 789.477H1436.65M1309.82 789.477V867.4M1436.65 789.477H1563.48M1436.65 789.477V867.4M1563.48 789.477H1690.32M1563.48 789.477V867.4M1690.32 789.477H1817.15M1690.32 789.477V867.4M1817.15 789.477V867.4M41.5009 867.4H-85.3311M41.5009 867.4H168.333M41.5009 867.4V945.324M-85.3311 867.4V945.324M168.333 867.4H295.165M168.333 867.4V945.324M295.165 867.4H421.997M295.165 867.4V945.324M421.997 867.4H548.829M421.997 867.4V945.324M548.829 867.4H675.66M548.829 867.4V945.324M675.66 867.4H802.492M675.66 867.4V945.324M802.492 867.4H929.324M802.492 867.4V945.324M929.324 867.4H1056.16M929.324 867.4V945.324M1056.16 867.4H1182.99M1056.16 867.4V945.324M1182.99 867.4H1309.82M1182.99 867.4V945.324M1309.82 867.4H1436.65M1309.82 867.4V945.324M1436.65 867.4H1563.48M1436.65 867.4V945.324M1563.48 867.4H1690.32M1563.48 867.4V945.324M1690.32 867.4H1817.15M1690.32 867.4V945.324M1817.15 867.4V945.324M41.5009 945.324H-85.3311M41.5009 945.324H168.333M41.5009 945.324V1023.25M-85.3311 945.324V1023.25M168.333 945.324H295.165M168.333 945.324V1023.25M295.165 945.324H421.997M295.165 945.324V1023.25M421.997 945.324H548.829M421.997 945.324V1023.25M548.829 945.324H675.66M548.829 945.324V1023.25M675.66 945.324H802.492M675.66 945.324V1023.25M802.492 945.324H929.324M802.492 945.324V1023.25M929.324 945.324H1056.16M929.324 945.324V1023.25M1056.16 945.324H1182.99M1056.16 945.324V1023.25M1182.99 945.324H1309.82M1182.99 945.324V1023.25M1309.82 945.324H1436.65M1309.82 945.324V1023.25M1436.65 945.324H1563.48M1436.65 945.324V1023.25M1563.48 945.324H1690.32M1563.48 945.324V1023.25M1690.32 945.324H1817.15M1690.32 945.324V1023.25M1817.15 945.324V1023.25M41.5009 1023.25H-85.3311M41.5009 1023.25H168.333M41.5009 1023.25V1101.17M-85.3311 1023.25V1101.17M168.333 1023.25H295.165M168.333 1023.25V1101.17M295.165 1023.25H421.997M295.165 1023.25V1101.17M421.997 1023.25H548.829M421.997 1023.25V1101.17M548.829 1023.25H675.66M548.829 1023.25V1101.17M675.66 1023.25H802.492M675.66 1023.25V1101.17M802.492 1023.25H929.324M802.492 1023.25V1101.17M929.324 1023.25H1056.16M929.324 1023.25V1101.17M1056.16 1023.25H1182.99M1056.16 1023.25V1101.17M1182.99 1023.25H1309.82M1182.99 1023.25V1101.17M1309.82 1023.25H1436.65M1309.82 1023.25V1101.17M1436.65 1023.25H1563.48M1436.65 1023.25V1101.17M1563.48 1023.25H1690.32M1563.48 1023.25V1101.17M1690.32 1023.25H1817.15M1690.32 1023.25V1101.17M1817.15 1023.25V1101.17M41.5009 1101.17H-85.3311M41.5009 1101.17H168.333M41.5009 1101.17V1179.09M-85.3311 1101.17V1179.09M168.333 1101.17H295.165M168.333 1101.17V1179.09M295.165 1101.17H421.997M295.165 1101.17V1179.09M421.997 1101.17H548.829M421.997 1101.17V1179.09M548.829 1101.17H675.66M548.829 1101.17V1179.09M675.66 1101.17H802.492M675.66 1101.17V1179.09M802.492 1101.17H929.324M802.492 1101.17V1179.09M929.324 1101.17H1056.16M929.324 1101.17V1179.09M1056.16 1101.17H1182.99M1056.16 1101.17V1179.09M1182.99 1101.17H1309.82M1182.99 1101.17V1179.09M1309.82 1101.17H1436.65M1309.82 1101.17V1179.09M1436.65 1101.17H1563.48M1436.65 1101.17V1179.09M1563.48 1101.17H1690.32M1563.48 1101.17V1179.09M1690.32 1101.17H1817.15M1690.32 1101.17V1179.09M1817.15 1101.17V1179.09M41.5009 1179.09H-85.3311M41.5009 1179.09H168.333M41.5009 1179.09V1257.02M-85.3311 1179.09V1257.02H41.5009M168.333 1179.09H295.165M168.333 1179.09V1257.02M295.165 1179.09H421.997M295.165 1179.09V1257.02M421.997 1179.09H548.829M421.997 1179.09V1257.02M548.829 1179.09H675.66M548.829 1179.09V1257.02M675.66 1179.09H802.492M675.66 1179.09V1257.02M802.492 1179.09H929.324M802.492 1179.09V1257.02M929.324 1179.09H1056.16M929.324 1179.09V1257.02M1056.16 1179.09H1182.99M1056.16 1179.09V1257.02M1182.99 1179.09H1309.82M1182.99 1179.09V1257.02M1309.82 1179.09H1436.65M1309.82 1179.09V1257.02M1436.65 1179.09H1563.48M1436.65 1179.09V1257.02M1563.48 1179.09H1690.32M1563.48 1179.09V1257.02M1690.32 1179.09H1817.15M1690.32 1179.09V1257.02M1817.15 1179.09V1257.02H1690.32M41.5009 1257.02H168.333M168.333 1257.02H295.165M295.165 1257.02H421.997M421.997 1257.02H548.829M548.829 1257.02H675.66M675.66 1257.02H802.492M802.492 1257.02H929.324M929.324 1257.02H1056.16M1056.16 1257.02H1182.99M1182.99 1257.02H1309.82M1309.82 1257.02H1436.65M1436.65 1257.02H1563.48M1563.48 1257.02H1690.32" stroke="url(#paint5_radial_2844_27)" stroke-opacity="0.2"/>
</g>
</g>
<defs>
<radialGradient id="paint0_radial_2844_27" cx="0" cy="0" r="1" gradientUnits="userSpaceOnUse" gradientTransform="translate(360.8 713.406) rotate(91.1516) scale(55.2391 163.039)">
<stop stop-color="white" stop-opacity="0.8"/>
<stop offset="1" stop-color="#05041F"/>
</radialGradient>
<radialGradient id="paint1_radial_2844_27" cx="0" cy="0" r="1" gradientUnits="userSpaceOnUse" gradientTransform="translate(866.77 478.852) rotate(90) scale(58.6372 173.112)">
<stop stop-color="white" stop-opacity="0.8"/>
<stop offset="1" stop-color="#05041F"/>
</radialGradient>
<radialGradient id="paint2_radial_2844_27" cx="0" cy="0" r="1" gradientUnits="userSpaceOnUse" gradientTransform="translate(739.231 943.866) rotate(93.3676) scale(56.6894 167.002)">
<stop stop-color="white" stop-opacity="0.8"/>
<stop offset="1" stop-color="#05041F"/>
</radialGradient>
<radialGradient id="paint3_radial_2844_27" cx="0" cy="0" r="1" gradientUnits="userSpaceOnUse" gradientTransform="translate(1249.73 790.452) rotate(91.1513) scale(55.2392 163.039)">
<stop stop-color="white" stop-opacity="0.8"/>
<stop offset="1" stop-color="#05041F"/>
</radialGradient>
<radialGradient id="paint4_radial_2844_27" cx="0" cy="0" r="1" gradientUnits="userSpaceOnUse" gradientTransform="translate(866.859 712.041) rotate(90) scale(60.0008 177.138)">
<stop stop-color="white" stop-opacity="0.8"/>
<stop offset="1" stop-color="#05041F"/>
</radialGradient>
<radialGradient id="paint5_radial_2844_27" cx="0" cy="0" r="1" gradientUnits="userSpaceOnUse" gradientTransform="translate(866.97 673.08) rotate(90) scale(413.869 673.637)">
<stop stop-color="white"/>
<stop offset="1" stop-color="white" stop-opacity="0"/>
</radialGradient>
<clipPath id="clip0_2844_27">
<rect width="1728" height="1117" fill="white"/>
</clipPath>
</defs>
</svg>
