<svg xmlns="http://www.w3.org/2000/svg" x="0px" y="0px" width="100" height="100" viewBox="0,0,256,256">
<g fill="#cbacf9" fill-rule="nonzero" stroke="none" stroke-width="1" stroke-linecap="butt" stroke-linejoin="miter" stroke-miterlimit="10" stroke-dasharray="" stroke-dashoffset="0" font-family="none" font-weight="none" font-size="none" text-anchor="none" style="mix-blend-mode: normal"><g transform="scale(5.12,5.12)"><path d="M18.5,2.5625c-4.13672,0 -7.5,3.36328 -7.5,7.5c0,1.12891 0.26172,2.21094 0.75,3.21875c3.66406,-2.22266 7.77344,-3.34375 12.5,-3.34375c0.58984,0 1.16406,0.05859 1.75,0.09375c-0.02344,-4.11719 -3.37891,-7.46875 -7.5,-7.46875zM37.28125,6.96875c-0.08984,-0.00391 -0.19141,0.00781 -0.28125,0.03125c-3.40234,0.85547 -5.82422,2.64453 -7.34375,5.5c-1.75781,-0.37109 -3.55469,-0.5625 -5.40625,-0.5625c-5.26562,0 -9.71094,1.47266 -13.5625,4.46875c-1.83203,1.42578 -3.1875,3.33594 -4.03125,5.59375c-0.79297,-0.27734 -2.65625,-1.12891 -2.65625,-3.21875c0,-1.08203 0.50391,-1.98047 1.34375,-2.34375c0.50781,-0.21875 0.75,-0.80469 0.53125,-1.3125c-0.21875,-0.50781 -0.80859,-0.75 -1.3125,-0.53125c-1.55859,0.67188 -2.5625,2.32422 -2.5625,4.1875c0,3.04297 2.44531,4.61328 4.09375,5.15625c-0.34375,1.50391 -0.50781,3.12109 -0.4375,4.84375c0.19531,4.62891 3.52344,7.96094 5.5625,9.59375c0.28125,0.21484 0.27344,0.20703 0.1875,0.46875c-0.30859,0.94141 -0.85937,2.30078 -0.875,2.34375c-0.25781,0.67969 -0.23437,1.42969 0.0625,2.09375c0.29688,0.66406 0.82031,1.14844 1.5,1.40625l3.21875,1.21875c1.36328,0.51953 3.01563,-0.21094 3.53125,-1.5625c0,0 0.40234,-1.10156 0.75,-2.03125c0.03516,-0.09375 0.07031,-0.16797 0.09375,-0.21875c0.14063,0.01953 0.35547,0.05078 0.5625,0.09375c0.80859,0.16797 2.03125,0.4375 4,0.4375c1.76953,0 2.95313,-0.13281 3.75,-0.21875c0.37109,-0.03906 0.65234,-0.09375 0.875,-0.09375c0.01563,0.03125 0.04297,0.07422 0.0625,0.125c0.32031,0.96484 0.71484,1.90625 0.71875,1.90625c0.39453,1.05078 1.40625,1.75 2.53125,1.75c0.33203,0 0.66016,-0.07031 0.96875,-0.1875l3.21875,-1.21875c0.67969,-0.25781 1.20313,-0.74219 1.5,-1.40625c0.29688,-0.66406 0.32031,-1.42187 0.0625,-2.09375l-0.5,-1.34375c-0.01953,-0.05078 -0.03516,-0.07812 -0.0625,-0.125c0,0 0.01953,-0.06641 0.1875,-0.15625c2.36328,-1.28516 4.26563,-3.30078 5.46875,-5.8125c0.22266,-0.46875 0.31641,-0.59375 0.71875,-0.59375h1.625c1.44531,0 2.625,-1.17969 2.625,-2.625v-4.875c0,-1.44922 -1.17969,-2.625 -2.625,-2.625h-1.625c-0.17187,0 -0.28125,-0.03906 -0.34375,-0.0625c-0.28125,-1.60937 -1.54297,-6.24609 -6.78125,-8.40625c0.05859,-1.93359 0.55078,-3.51172 1.5625,-6.25c0.12891,-0.34766 0.05859,-0.75391 -0.1875,-1.03125c-0.1875,-0.20703 -0.44922,-0.30469 -0.71875,-0.3125zM36.46875,23.09375c1.05469,0 1.90625,0.85156 1.90625,1.90625c0,1.05469 -0.85156,1.9375 -1.90625,1.9375c-1.05859,0 -1.90625,-0.87891 -1.90625,-1.9375c0,-1.05469 0.84766,-1.90625 1.90625,-1.90625z"></path></g></g>
</svg>